<svg width="864" height="308" viewBox="0 0 864 308" fill="none" xmlns="http://www.w3.org/2000/svg">
<path fill-rule="evenodd" clip-rule="evenodd" d="M209 208V224C209 268.183 173.183 304 129 304H112V288C112 243.817 147.817 208 192 208H209Z" fill="#95865B"/>
<path fill-rule="evenodd" clip-rule="evenodd" d="M209 112V128C209 172.183 173.183 208 129 208H112V192C112 147.817 147.817 112 192 112H209Z" fill="#95865B"/>
<path fill-rule="evenodd" clip-rule="evenodd" d="M416 0V9.83333C416 36.9875 393.845 59 366.515 59H356V49.1667C356 22.0125 378.155 0 405.485 0H416Z" fill="#95865B"/>
<path fill-rule="evenodd" clip-rule="evenodd" d="M0 208V224C0 268.183 35.8172 304 80 304H97V288C97 243.817 61.1828 208 17 208H0Z" fill="#95865B"/>
<path fill-rule="evenodd" clip-rule="evenodd" d="M0 112V128C0 172.183 35.8172 208 80 208H97V192C97 147.817 61.1828 112 17 112H0Z" fill="#95865B"/>
<path fill-rule="evenodd" clip-rule="evenodd" d="M103.882 2L92.5685 13.314C61.3266 44.556 61.3266 95.209 92.5686 126.451L104.589 138.472L115.903 127.158C147.145 95.916 147.145 45.263 115.903 14.021L103.882 2Z" fill="#95865B"/>
<path d="M233.88 202V196.68L238.08 195.28C241.813 194.347 244.333 192.76 245.64 190.52C247.133 188.28 247.88 185.293 247.88 181.56V99.5199C247.693 95.4129 246.947 92.3329 245.64 90.2799C244.333 88.0399 241.813 86.5469 238.08 85.7999L233.88 84.6799V79.6399L279.52 63.3999L282.88 66.4799L285.4 91.1199V93.0799C288.2 87.8529 291.747 82.9999 296.04 78.5199C300.333 74.0399 305 70.3999 310.04 67.5999C315.08 64.7999 320.12 63.3999 325.16 63.3999C332.253 63.3999 337.573 65.2669 341.12 68.9999C344.667 72.7329 346.44 77.4929 346.44 83.2799C346.44 89.6269 344.667 94.4799 341.12 97.8399C337.573 101.013 333.28 102.6 328.24 102.6C320.773 102.6 314.333 99.2399 308.92 92.5199L308.36 91.9599C306.493 89.7199 304.347 88.5069 301.92 88.3199C299.68 87.9469 297.44 89.0669 295.2 91.6799C293.333 93.5469 291.56 95.7869 289.88 98.3999C288.387 100.827 286.987 103.72 285.68 107.08V180.44C285.68 183.987 286.427 186.973 287.92 189.4C289.413 191.64 291.933 193.227 295.48 194.16L303.88 196.68V202H233.88ZM381 36.7999C374.84 36.7999 401.331 12.7134 388.04 28.1199C396.68 22.7999 394.98 23.6399 381 27.2799C393.08 27.2799 383.746 20.9329 388.04 17.1999C381.88 17.1999 388.04 27.2799 388.04 17.1999C378.428 27.2799 394.2 17.1999 388.04 17.1999C381.899 23.6399 398 21.9599 398 28.1199C392.28 22.7999 398 34.0929 398 28.1199C393.706 32.0399 382.086 25.5999 381 36.7999ZM355.84 202V196.68L360.04 195.56C363.773 194.44 366.293 192.76 367.6 190.52C368.906 188.28 369.653 185.293 369.84 181.56V130.04C369.84 124.253 369.84 118.933 369.84 114.08C369.84 109.04 369.746 103.907 369.56 98.6799C369.56 94.9469 368.813 92.0529 367.32 89.9999C366.013 87.7599 363.493 86.2669 359.76 85.5199L355.84 84.6799V79.6399L404.84 63.3999L408.2 66.4799L407.36 106.24V181.84C407.36 185.573 408.013 188.56 409.32 190.8C410.813 193.04 413.333 194.72 416.88 195.84L419.96 196.68V202H355.84ZM491.541 202.84L442.261 84.3999C440.208 79.1729 436.568 75.8129 431.341 74.3199L425.461 72.9199V67.5999H496.301V72.9199L489.021 74.5999C483.048 76.0929 481.275 79.9199 483.701 86.0799L513.101 164.2L540.541 86.6399C541.475 83.4669 541.661 80.9469 541.101 79.0799C540.728 77.0269 538.955 75.6269 535.781 74.8799L527.661 72.9199V67.5999H570.221V72.9199L560.981 75.1599C555.568 76.4669 551.928 79.8269 550.061 85.2399L507.781 202.84H491.541ZM640.482 205.92C626.668 205.92 614.535 203.027 604.082 197.24C593.815 191.453 585.788 183.24 580.002 172.6C574.402 161.96 571.602 149.267 571.602 134.52C571.602 119.773 574.588 107.08 580.562 96.4399C586.722 85.7999 594.935 77.6799 605.202 72.0799C615.655 66.2929 627.415 63.3999 640.482 63.3999C653.548 63.3999 665.215 66.2929 675.482 72.0799C685.935 77.6799 694.148 85.7999 700.122 96.4399C706.282 106.893 709.362 119.587 709.362 134.52C709.362 149.267 706.468 162.053 700.682 172.88C695.082 183.52 687.148 191.733 676.882 197.52C666.615 203.12 654.482 205.92 640.482 205.92ZM640.482 198.08C647.202 198.08 652.615 196.307 656.722 192.76C661.015 189.027 664.095 182.587 665.962 173.44C667.828 164.293 668.762 151.507 668.762 135.08C668.762 118.467 667.828 105.587 665.962 96.4399C664.095 87.1069 661.015 80.6669 656.722 77.1199C652.615 73.3869 647.202 71.5199 640.482 71.5199C633.762 71.5199 628.348 73.3869 624.242 77.1199C620.135 80.6669 617.055 87.1069 615.002 96.4399C613.135 105.587 612.202 118.467 612.202 135.08C612.202 151.507 613.135 164.293 615.002 173.44C617.055 182.587 620.135 189.027 624.242 192.76C628.348 196.307 633.762 198.08 640.482 198.08ZM721.432 202V196.68L725.632 195.56C731.792 193.507 734.872 188.84 734.872 181.56C734.872 175.213 734.872 168.867 734.872 162.52C735.059 155.987 735.152 149.547 735.152 143.2V36.7999C735.152 32.8799 734.499 29.9869 733.192 28.1199C731.886 26.0669 729.366 24.5729 725.632 23.6399L721.432 22.5199V17.1999L770.432 5.43994L774.072 7.95994L772.952 47.4399V181.56C773.139 185.293 773.886 188.373 775.192 190.8C776.686 193.04 779.206 194.627 782.752 195.56L786.672 196.68V202H721.432ZM826 31C830.293 34.92 819.84 31 826 31C826 36.973 821.706 27.08 826 31C826 24.84 817.706 26.2529 822 22.5199C815.84 22.5199 826.293 18.5999 822 22.5199C828.16 22.5199 827.535 18.5999 831.829 22.5199C836.122 26.2529 838 21.9599 838 28.1199C838 34.0929 836.122 27.08 831.829 31C827.535 34.92 832.16 31 826 31ZM799.629 202V196.68L803.829 195.56C807.562 194.44 810.082 192.76 811.389 190.52C812.695 188.28 813.442 185.293 813.629 181.56V130.04C813.629 124.253 813.629 118.933 813.629 114.08C813.629 109.04 813.535 103.907 813.349 98.6799C813.349 94.9469 812.602 92.0529 811.109 89.9999C809.802 87.7599 807.282 86.2669 803.549 85.5199L799.629 84.6799V79.6399L848.629 63.3999L851.989 66.4799L851.149 106.24V181.84C851.149 185.573 851.802 188.56 853.109 190.8C854.602 193.04 857.122 194.72 860.669 195.84L863.749 196.68V202H799.629Z" fill="#95865B"/>
<path d="M272.199 290.532C271.558 296.021 269.526 300.263 266.104 303.257C262.706 306.228 258.179 307.713 252.523 307.713C246.393 307.713 241.474 305.515 237.767 301.119C234.083 296.722 232.242 290.841 232.242 283.475V278.484C232.242 273.66 233.097 269.419 234.808 265.759C236.543 262.1 238.99 259.296 242.151 257.347C245.311 255.375 248.971 254.389 253.129 254.389C258.642 254.389 263.062 255.933 266.389 259.022C269.716 262.088 271.653 266.341 272.199 271.783H265.32C264.726 267.648 263.431 264.654 261.435 262.801C259.462 260.947 256.694 260.021 253.129 260.021C248.757 260.021 245.323 261.636 242.828 264.868C240.357 268.1 239.121 272.698 239.121 278.663V283.688C239.121 289.32 240.297 293.8 242.65 297.126C245.002 300.453 248.294 302.117 252.523 302.117C256.326 302.117 259.236 301.261 261.256 299.55C263.3 297.816 264.654 294.81 265.32 290.532H272.199ZM339.603 282.726C339.603 287.811 338.748 292.255 337.037 296.057C335.326 299.835 332.902 302.723 329.765 304.719C326.628 306.715 322.969 307.713 318.787 307.713C314.699 307.713 311.076 306.715 307.915 304.719C304.755 302.699 302.295 299.835 300.537 296.128C298.802 292.398 297.911 288.085 297.863 283.189V279.447C297.863 274.457 298.731 270.049 300.465 266.223C302.2 262.397 304.648 259.474 307.808 257.454C310.992 255.41 314.628 254.389 318.715 254.389C322.874 254.389 326.533 255.399 329.694 257.418C332.878 259.415 335.326 262.326 337.037 266.151C338.748 269.953 339.603 274.385 339.603 279.447V282.726ZM332.795 279.375C332.795 273.221 331.559 268.504 329.088 265.225C326.617 261.922 323.159 260.27 318.715 260.27C314.39 260.27 310.98 261.922 308.485 265.225C306.014 268.504 304.743 273.066 304.671 278.912V282.726C304.671 288.691 305.919 293.384 308.414 296.806C310.933 300.204 314.39 301.903 318.787 301.903C323.207 301.903 326.628 300.299 329.052 297.091C331.476 293.859 332.724 289.237 332.795 283.225V279.375ZM407.862 307H400.983L374.855 267.007V307H367.976V255.102H374.855L401.054 295.273V255.102H407.862V307ZM466.747 284.081H444.968V307H438.125V255.102H470.276V260.733H444.968V278.484H466.747V284.081ZM525.917 283.011H503.425V301.404H529.553V307H496.582V255.102H529.196V260.733H503.425V277.415H525.917V283.011ZM563.522 307H556.678V255.102H563.522V307ZM628.609 260.733H611.927V307H605.119V260.733H588.473V255.102H628.609V260.733ZM681.648 293.455H659.905L655.021 307H647.964L667.782 255.102H673.771L693.625 307H686.603L681.648 293.455ZM661.972 287.823H679.616L670.776 263.549L661.972 287.823ZM737.752 286.005H725.562V307H718.683V255.102H735.863C741.709 255.102 746.2 256.432 749.337 259.094C752.497 261.755 754.078 265.629 754.078 270.714C754.078 273.946 753.198 276.762 751.44 279.162C749.705 281.562 747.281 283.356 744.168 284.544L756.359 306.572V307H749.016L737.752 286.005ZM725.562 280.409H736.077C739.475 280.409 742.172 279.53 744.168 277.771C746.188 276.013 747.198 273.66 747.198 270.714C747.198 267.506 746.236 265.046 744.311 263.335C742.41 261.625 739.653 260.757 736.042 260.733H725.562V280.409ZM789.152 307H782.308V255.102H789.152V307ZM848.464 293.455H826.721L821.838 307H814.78L834.599 255.102H840.587L860.441 307H853.419L848.464 293.455ZM828.789 287.823H846.433L837.593 263.549L828.789 287.823Z" fill="#95865B"/>
<path fill-rule="evenodd" clip-rule="evenodd" d="M860 0V9.83333C860 36.9875 837.845 59 810.516 59H800V49.1667C800 22.0125 822.155 0 849.485 0H860Z" fill="#95865B"/>
</svg>
